<svg id="Layer_1" data-name="Layer 1" xmlns="http://www.w3.org/2000/svg" viewBox="0 0 256 256"><title>Day-Arthboard</title><rect x="124.19" y="46.21" width="9.62" height="28.87" fill="#f4c606"/><rect x="124.19" y="180.92" width="9.62" height="28.87" fill="#fcde00"/><rect x="56.84" y="113.57" width="9.62" height="28.87" transform="translate(-66.35 189.65) rotate(-90)" fill="#f4c606"/><rect x="78.27" y="161.9" width="9.62" height="24.05" transform="translate(18.84 355.65) rotate(-135)" fill="#f4c606"/><rect x="170.12" y="70.05" width="9.62" height="24.05" transform="translate(240.58 263.8) rotate(-135)" fill="#f4c606"/><rect x="124.32" y="180.92" width="9.62" height="28.87" fill="#f4c606"/><g opacity="0.3"><path d="M221,171.3a20,20,0,0,0-20-20c-.4,0-.78,0-1.17.06a23.29,23.29,0,0,0-45.43,7.26c0,.31,0,.6,0,.9a16,16,0,0,0,2.62,31.72h45.27v-.06A20,20,0,0,0,221,171.3Z" fill="#9160a6"/></g><path d="M129,89.51a38.82,38.82,0,0,0-8.4.93,19.93,19.93,0,0,1-17.66,26.06v.07H92.24A38.54,38.54,0,0,0,129,166.49a38.13,38.13,0,0,0,6-.47A16,16,0,0,1,147.3,156c0-.3,0-.6,0-.9a23.31,23.31,0,0,1,20-23.07,37.52,37.52,0,0,0,.21-4A38.49,38.49,0,0,0,129,89.51Z" fill="#f4c606"/><g opacity="0.3"><path d="M114.89,90.46a20,20,0,0,0-20-20c-.39,0-.78,0-1.17.06a23.29,23.29,0,0,0-45.43,7.26c0,.3,0,.6,0,.9A16,16,0,0,0,51,110.43H96.25v-.07A20,20,0,0,0,114.89,90.46Z" fill="#9160a6"/></g></svg>