<svg id="Layer_1" data-name="Layer 1" xmlns="http://www.w3.org/2000/svg" viewBox="0 0 256 256"><title>Day-Arthboard</title><rect x="111.48" y="56.36" width="9.14" height="27.43" fill="#f4c606"/><rect x="47.48" y="120.36" width="9.14" height="27.43" transform="translate(-82.02 186.12) rotate(-90)" fill="#f4c606"/><rect x="67.84" y="79.01" width="9.14" height="22.86" transform="translate(-42.74 77.69) rotate(-45)" fill="#f4c606"/><rect x="67.84" y="166.28" width="9.14" height="22.86" transform="translate(-2.05 354.57) rotate(-135)" fill="#f4c606"/><rect x="155.12" y="79.01" width="9.14" height="22.86" transform="translate(208.66 267.3) rotate(-135)" fill="#f4c606"/><path d="M126.61,155.34c0-.37-.06-.74-.06-1.11a29,29,0,0,1,25-28.72,36.57,36.57,0,1,0-41,44.72A19.89,19.89,0,0,1,126.61,155.34Z" fill="#f4c606"/><g opacity="0.3"><path d="M217.67,174.79a24.86,24.86,0,0,0-24.86-24.85c-.49,0-1,.05-1.45.07a29,29,0,0,0-56.53,9c0,.38,0,.75.06,1.12a19.87,19.87,0,0,0,3.25,39.47h56.33v-.08A24.84,24.84,0,0,0,217.67,174.79Z" fill="#9160a6"/></g></svg>