<svg id="Layer_1" data-name="Layer 1" xmlns="http://www.w3.org/2000/svg" viewBox="0 0 256 256"><title>Day-Arthboard</title><g opacity="0.3"><path d="M221,166.56a34,34,0,0,0-34-34c-.68,0-1.33.06-2,.1A39.68,39.68,0,0,0,107.59,145c0,.52,0,1,.07,1.53a27.21,27.21,0,0,0,4.46,54.05h77.12v-.12A34,34,0,0,0,221,166.56Z" fill="#9160a6"/></g><rect x="98.51" y="55.41" width="9.07" height="22.68" fill="#f4c606"/><rect x="41.8" y="112.12" width="9.07" height="22.68" transform="translate(-77.12 169.8) rotate(-90)" fill="#f4c606"/><rect x="58.41" y="72.02" width="9.07" height="22.68" transform="translate(-40.51 68.93) rotate(-45)" fill="#f4c606"/><rect x="58.41" y="152.22" width="9.07" height="22.68" transform="translate(-8.19 323.73) rotate(-135)" fill="#f4c606"/><rect x="138.61" y="72.02" width="9.07" height="22.68" transform="translate(185.42 243.53) rotate(-135)" fill="#f4c606"/><path d="M84.85,149.47a36.12,36.12,0,0,1,14-9.86,48.89,48.89,0,0,1,26.93-38.34,31.74,31.74,0,1,0-40.89,48.2Z" fill="#f4c606"/></svg>